
<svg
  version="1.1"
  baseProfile="full"
  xmlns="http://www.w3.org/2000/svg"
  xmlns:xlink="http://www.w3.org/1999/xlink"
  viewbox="0 0 666 666"
  width="666"
  height="666"
>
<style>
  #outline {
		stroke: #111;
		stroke-width: 31.66235665441778;
		fill: none;
  }
  .dot {
		fill: #111;
  }
  .point {
		fill: #111;
  }
  /*.point:nth-child(odd) {
		fill: rgb(165, 24, 201);
  }*/
  .ray {
		stroke: #111;
		stroke-width: 31.66235665441778;
  }
  /*.ray:nth-child(even) {
		stroke: rgb(165, 24, 201);
  }*/
  #background {
		fill: #FCFCFC;
		stroke: none;
  }
  #pupil {
		fill: rgb(165, 24, 201);
  }
</style>
<g transform="translate(333, 333)">
  <circle id="background" r="333.000000"/>
  <circle id="outline" r="164.644255"/>
  <circle id="pupil" r="25.615385"/>

		<line class="ray" x1="250.106874" y1="0.000000" x2="51.230769" y2="0.000000" />
	<line class="ray" x1="176.852267" y1="176.852267" x2="36.225624" y2="36.225624" />
	<line class="ray" x1="0.000000" y1="250.106874" x2="0.000000" y2="51.230769" />
	<line class="ray" x1="-176.852267" y1="176.852267" x2="-36.225624" y2="36.225624" />
	<line class="ray" x1="-250.106874" y1="0.000000" x2="-51.230769" y2="0.000000" />
	<line class="ray" x1="-176.852267" y1="-176.852267" x2="-36.225624" y2="-36.225624" />
	<line class="ray" x1="-0.000000" y1="-250.106874" x2="-0.000000" y2="-51.230769" />
	<line class="ray" x1="176.852267" y1="-176.852267" x2="36.225624" y2="-36.225624" />

		<path class="point" d="M 264.493552 -52.611039 L 333.000000 0.000000 L 264.493552 52.611039 Z" />
	<path class="point" d="M 224.226806 149.823562 L 235.466558 235.466558 L 149.823562 224.226806 Z" />
	<path class="point" d="M 52.611039 264.493552 L 0.000000 333.000000 L -52.611039 264.493552 Z" />
	<path class="point" d="M -149.823562 224.226806 L -235.466558 235.466558 L -224.226806 149.823562 Z" />
	<path class="point" d="M -264.493552 52.611039 L -333.000000 0.000000 L -264.493552 -52.611039 Z" />
	<path class="point" d="M -224.226806 -149.823562 L -235.466558 -235.466558 L -149.823562 -224.226806 Z" />
	<path class="point" d="M -52.611039 -264.493552 L -0.000000 -333.000000 L 52.611039 -264.493552 Z" />
	<path class="point" d="M 149.823562 -224.226806 L 235.466558 -235.466558 L 224.226806 -149.823562 Z" />
</g>
</svg>

