<?xml version="1.0" standalone="no"?>
<!DOCTYPE svg PUBLIC "-//W3C//DTD SVG 20010904//EN"
 "http://www.w3.org/TR/2001/REC-SVG-20010904/DTD/svg10.dtd">
<svg version="1.0" xmlns="http://www.w3.org/2000/svg"
 width="1280.000000pt" height="1116.000000pt" viewBox="0 0 1280.000000 1116.000000"
 preserveAspectRatio="xMidYMid meet">
<g transform="translate(0.000000,1116.000000) scale(0.100000,-0.100000)"
fill="#000000" stroke="none">
<path d="M7460 10700 c-144 -18 -243 -62 -336 -151 l-61 -59 -59 15 c-82 21
-186 20 -213 -2 -11 -10 -80 -124 -152 -253 -72 -129 -137 -241 -143 -248 -10
-11 -35 -4 -132 34 -852 332 -1743 411 -2639 233 -1679 -333 -3061 -1608
-3534 -3260 -96 -333 -144 -621 -177 -1055 -17 -220 -17 -243 0 -455 9 -123
24 -280 32 -349 101 -828 428 -1614 948 -2285 170 -219 393 -458 591 -635 231
-206 417 -344 905 -674 608 -410 1671 -718 2870 -830 398 -38 489 -41 1095
-41 621 0 714 4 1141 45 745 73 1481 230 2023 432 808 301 1301 687 1423 1115
18 63 22 103 22 203 -1 113 -4 134 -32 221 -111 337 -437 634 -987 900 -313
151 -547 235 -1007 364 -38 10 -58 21 -58 31 0 8 27 103 61 212 75 245 132
467 165 642 223 1194 -16 2410 -672 3410 -270 412 -630 807 -998 1095 -47 38
-86 73 -86 78 0 6 63 122 140 259 77 136 142 259 146 273 13 52 -77 175 -201
273 -53 43 -43 57 76 104 152 60 259 81 386 76 199 -8 276 -57 489 -314 148
-177 211 -236 305 -284 92 -47 430 -126 663 -155 240 -30 352 -16 542 65 52
22 99 38 105 35 16 -11 37 -59 54 -125 22 -89 35 -120 50 -120 15 0 26 32 50
145 14 64 24 86 50 112 44 44 90 44 201 -2 88 -37 124 -43 124 -23 0 7 -26 46
-58 88 -73 94 -82 110 -82 154 0 50 43 95 139 145 43 22 84 47 90 55 20 24
-22 39 -94 34 -91 -8 -164 6 -194 37 -23 22 -26 33 -25 93 0 37 4 100 9 140 7
63 6 72 -8 72 -9 0 -41 -31 -71 -68 -75 -94 -110 -122 -153 -122 -48 0 -87 26
-161 109 -95 106 -109 95 -72 -54 24 -95 24 -115 6 -159 -20 -48 -69 -67 -186
-73 -54 -3 -104 -9 -111 -14 -19 -12 4 -34 62 -60 27 -13 49 -26 49 -31 0 -12
-96 -70 -159 -97 -88 -37 -141 -51 -222 -58 -100 -8 -154 6 -312 78 -70 33
-130 59 -133 59 -21 0 -199 143 -434 350 -102 89 -198 173 -215 185 -27 21
-59 27 -300 54 -315 35 -445 42 -535 31z"/>
</g>
</svg>
