<svg width="1922" height="400" xmlns="http://www.w3.org/2000/svg"><g fill-rule="nonzero" fill="none"><path d="M156.083 244.045l33.654 33.653c-19.78 18.749-45.942 30.093-75.474 30.093C49.151 307.791.259 252.639.259 184.684c0-67.965 48.638-119.326 113.75-119.326 27.264 0 51.702 9.015 70.896 24.473l-34.127 34.127c-10.031-6.932-22.338-10.879-36.394-10.879-39.457 0-65.61 31.098-65.61 72.288 0 41.181 26.153 74.563 65.61 74.563 16.64 0 30.845-5.933 41.699-15.885z" fill="#8C63FF"/><path fill="#4A4A4A" d="M248.153 220.07l-45.444 45.444-34.162-34.16 45.444-45.446-50.004-50.004 34.162-34.153 49.996 49.996 49.776-49.777 34.162 34.163-49.777 49.775 45.216 45.217-34.152 34.162z"/><path d="M495.593 184.684c0 67.955-48.736 123.107-113.847 123.107-29.559 0-55.781-11.362-75.598-30.137l33.733-33.732c10.958 10.021 25.277 16.008 41.986 16.008 39.457 0 65.199-33.383 65.199-74.563 0-41.19-25.742-72.288-65.199-72.288-14.127 0-26.556 3.991-36.683 11.002l-34.346-34.347c19.116-15.404 43.439-24.376 70.652-24.376 65.113-.001 114.103 51.361 114.103 119.326zM796.37 136.184c-6.547-13.276-17.82-22.03-30.634-22.03-20.219 0-40.402 21.917-40.402 48.901l.14 125.786h-47.265V145.365c-5.322-18.23-18.6-31.141-34.136-31.141-20.219 0-40.263 21.881-40.263 48.875V288.84l-47.265.001V76.15h47.265v17.443c13.996-14.196 33.69-23.134 53.4-23.134 23.257 0 43.72 12.438 55.563 31.257 14.415-18.818 38.563-31.257 62.738-31.257 34.373 0 62.862 25.13 68.122 58.014v160.368l-47.265-.001V136.184h.002zM959.171 155.782v53.96c9.277 25.085 31.089 42.696 56.507 42.696 33.829 0 61.261-31.196 61.261-69.689 0-38.485-27.432-69.681-61.261-69.681-25.435 0-47.246 17.62-56.507 42.714zm0 109.128V400h-47.265V76.15h47.265v24.445c17.61-18.669 41.251-30.091 67.229-30.091 54.503 0 98.678 50.258 98.678 112.244 0 61.995-44.175 112.254-98.678 112.254-25.986.001-49.619-11.422-67.229-30.092zM1358.294 76.15v130.345c0 49.348-39.973 89.348-89.32 89.348-49.347 0-89.234-40-89.234-89.348V76.15h47.265v132.97c0 23.239 18.767 42.084 42.014 42.084 23.246 0 42.013-18.845 42.013-42.084V76.15h47.262zM1466.828 123.415v165.426h-47.265V123.415h-22.756V77.024h22.756V0h47.265v77.024h38.512v46.391zM1580.569 194.312c4.43 31.921 26.583 56.166 58.249 56.166 26.259 0 48.832-16.657 58.836-40.534l38.03 21.821c-17.505 38.03-54.318 64.228-96.971 64.228-59.632 0-104.419-51.213-104.419-114.373 0-63.168 44.865-110.869 104.497-110.869s97.619 47.701 97.619 110.869v12.692h-155.841zm110.478-42.888c-8.866-21.243-27.37-35.16-52.229-35.16-24.848 0-43.842 13.907-53.015 35.16h105.244zM1921.348 219.125c2.556 23.178-7.483 46.984-26.188 62.109-11.3 9.139-27.887 14.171-44.779 14.171-6.494 0-13.041-.744-19.344-2.284-24.998-6.109-45.006-23.781-56.35-49.76l40.778-17.803c5.821 13.33 14.608 21.522 26.127 24.332 11.702 2.862 22.433-.708 25.585-3.256 7.037-5.699 10.853-14.371 9.942-22.651-.472-4.29-2.478-10.109-9.348-13.522-2.521-1.253-4.911-2.434-7.212-3.572-12.35-6.117-23.02-11.396-41.131-21.146-19.604-10.555-31.719-27.527-34.117-47.799-2.275-19.229 4.92-38.87 18.784-51.265 14.976-13.399 34.94-18.687 54.774-14.511 22.705 4.778 42.311 20.962 52.446 43.281l-40.517 18.397c-4.244-9.339-12.324-16.288-21.094-18.134-6.084-1.279-11.449.112-15.948 4.139-2.599 2.319-4.894 7.484-4.253 12.859.656 5.609 4.367 10.266 11.02 13.846 17.443 9.392 27.291 14.275 39.771 20.445 2.32 1.148 4.728 2.337 7.273 3.607 19.128 9.497 31.444 27.187 33.781 48.517z" fill="#4A4A4A"/></g></svg>