<svg xmlns="http://www.w3.org/2000/svg" id="a" data-name="Layer 1" viewBox="0 0 118.17 154.51"><path d="m39.23,84.66c-.71-6.38-3.22-11.68-7.52-15.9-1.12-1.1-3.4-2.93-6.86-5.5-4-2.97-8.13-5.75-12.39-8.33-.54-.33-1-.64-1.38-.94-.6-.46-1.01-.83-1.26-1.09-.44-.47-.43-.73.05-.77.16-.01.34.02.54.11,6.76,2.85,13.29,6.17,19.59,9.96.15.09.22.03.17-.14-1.4-4.12-2.84-8.23-4.3-12.35-.53-1.51-1.14-2.67-1.82-3.47-1.18-1.39-2.62-2.49-4.33-3.28-.13-.06-.28-.06-.4,0-1.18.52-2.29.74-3.32.68-4.66-.29-8.35-2.39-11.08-6.29C2.36,33.68.72,29.45,0,24.65c-.02-.11.08-.21.19-.2,3.46.26,6.86.87,10.2,1.83,3.13.9,5.65,2.65,7.59,5.25,2.17,2.91,2.94,6.19,2.31,9.83-.05.31.08.63.35.8,1.36.87,2.62,1.89,3.76,3.06.08.09.15.06.15-.06-.23-5.84-.24-11.56,0-17.14.01-.35-.19-.66-.5-.81-5.55-2.62-8.47-6.89-8.77-12.81-.18-3.47.27-6.85,1.35-10.15.14-.45.24-.87.29-1.27.01-.14.07-.16.18-.07,1.73,1.58,3.33,3.09,4.8,4.51,1.57,1.51,2.95,3.17,4.15,4.98,1.83,2.77,2.59,5.82,2.27,9.15-.2,2.1-1.09,4.09-2.67,5.99-.16.19-.26.44-.27.69-.16,4.9-.06,9.59.32,14.09.16,1.95.58,3.86,1.24,5.7,1.69,4.74,3.75,9.31,6.18,13.7.54.97,1.7,2.78,3.5,5.41,2.11,3.1,3.9,6.37,5.38,9.82.89,2.07,1.71,4.65,2.48,7.72.65,2.63,1.27,5.27,1.85,7.92.16.73.46,1.03.91.9.5-.15.8-.47.91-.98.98-4.23,1.5-8.24,1.55-12.02.05-3.37-.3-6.68-1.06-9.93-.6-2.62-1.6-5.37-2.99-8.24-2.45-5.05-5.51-9.71-9.18-13.97-2.37-2.75-3.8-4.5-4.28-5.25-2.08-3.18-3.7-6.88-4.84-11.1-.51-1.88-.85-3.27-1.03-4.16-.04-.19.02-.25.17-.17.12.06.21.2.28.4.55,1.67,1.33,3.78,2.36,6.32.95,2.34,2.44,4.6,4.48,6.8.98,1.06,2.31,2.4,4,4.01,1.36,1.3,2.8,2.52,4.32,3.67.2.15.37.07.37-.19,0-4.58.57-9.14,1.7-13.67.06-.25-.09-.5-.34-.57-2.16-.62-3.94-1.61-5.35-2.97-2.17-2.1-3.37-4.53-3.6-7.28-.16-1.88.31-4.24,1.42-7.08,1-2.59,2.21-5.09,3.64-7.51.09-.15.3-.17.41-.04,2.3,2.68,4.28,5.51,5.94,8.49.67,1.21,1.27,2.96,1.79,5.25.76,3.37.34,6.5-1.26,9.38-.46.83-.76,1.57-.89,2.22-.65,3.23-.96,6.62-.93,10.17.02,1.97.23,3.77.63,5.4,1.09,4.42,2.78,8.59,5.09,12.52.33.55.7,1.07,1.13,1.53.5.55,1.01.85,1.53.91.72.08,1.32-.23,1.81-.92,2.24-3.14,3.68-6.67,4.33-10.61.93-5.62,1.57-11.27,1.94-16.95.24-3.88.5-7.7.76-11.47.01-.15-.11-.28-.26-.29-6.05-.36-9.94-3.37-11.65-9.03-.76-2.5-1.16-5.07-1.2-7.69-.04-2.79.09-5.55.39-8.27.02-.18.16-.24.3-.13,1.85,1.37,3.65,2.73,5.4,4.06.02.02.73.53,2.11,1.54,2.42,1.78,4.38,3.76,5.86,5.96,2.03,3.01,2.62,6.31,1.78,9.93-.13.56-.43,1.22-.89,1.99-.66,1.12-.92,1.91-.76,2.38.75,2.26,1.33,4.57.7,6.86-.68,2.51-.88,3.57-.59,3.18,1.1-1.48,2.12-3.02,3.07-4.6.94-1.58,1.68-3.25,2.2-4.99.47-1.56.71-3.34.73-5.33.03-3.57-.38-7.09-1.24-10.58-.04-.17-.01-.19.09-.04.18.27.35.68.49,1.23.99,3.82,1.5,7.71,1.53,11.65.04,3.73-.9,7.19-2.8,10.38-.51.86-1.4,2.32-2.67,4.38-.48.78-.81,1.69-1,2.73-.52,2.88-.71,5.77-.58,8.69,0,.12.08.15.16.06l2.64-2.79c.09-.1.13-.24.11-.38-.46-2.39-.36-4.43.32-6.1,1.19-2.96,3.34-5.4,6.43-7.31,2.36-1.46,4.86-2.62,7.49-3.49.11-.04.23.05.23.17-.03,1.35-.08,2.65-.15,3.89-.25,4.38-1.44,8.13-3.57,11.24-2.04,2.98-4.82,4.3-8.33,3.96-.56-.06-1.13.15-1.54.54-.9.85-1.68,1.75-2.35,2.68-.53.74-1.09,1.79-1.68,3.15-.96,2.2-1.9,4.41-2.82,6.63,0,.02-.5,1.13-1.48,3.32-.93,2.09-1.47,3.9-1.61,5.43-.16,1.7.1,2.09.77,1.16.11-.16.26-.4.45-.73,2.83-5.09,6.35-9.18,10.57-12.27,3.62-2.64,7.64-4.33,12.07-5.07.6-.1,1.12-.32,1.57-.67.32-.25.66-.69,1.01-1.31,1.17-2.08,2.26-4.28,3.26-6.61.05-.11-.01-.25-.13-.29-1.67-.62-2.72-1.74-3.16-3.37-.27-1-.29-2.18-.06-3.53.19-1.11.55-2.2,1.09-3.3,1.59-3.21,4.05-5.77,7.38-7.69,3.4-1.96,6.52-3.49,9.36-4.6.09-.04.19.04.18.14-.4,3.79-1.23,7.81-2.48,12.07-.86,2.93-2.2,5.47-4.03,7.62-.94,1.11-1.9,1.88-2.89,2.31-1.1.48-2.35.73-3.73.74-.21,0-.41.13-.48.33l-2.62,7.48c-.23.65.01,1.01.72,1.06,2.64.21,5.3.34,7.97.37,1.74.03,3.47-.15,5.17-.52.11-.02.16-.15.11-.25-.85-1.63-1.18-3.24-.99-4.86.44-3.79,2.19-6.73,5.25-8.82,1.3-.89,2.83-1.72,4.57-2.47,3.34-1.45,6.71-2.73,10.12-3.86.11-.04.23.06.21.18-.97,5.01-2.37,9.86-4.2,14.53-1,2.56-2.63,4.53-4.9,5.93-1.54.95-3.05,1.45-4.54,1.51-1.65.07-3.26-.35-4.84-1.28-.12-.07-.27-.07-.39,0-.78.47-1.55.8-2.31,1.01-.19.05-1.01.2-2.47.44-2.8.46-5.36.67-7.7.63-2.29-.04-4.45.21-6.48.74-1.92.5-3.86,1.41-5.82,2.72-4.42,2.96-7.94,6.82-10.57,11.59-1.62,2.93-2.84,6.02-3.69,9.26-1.55,6-2.36,12.08-2.43,18.24-.04,2.98.05,5.91.27,8.79.62,8.35,2.65,16.37,6.09,24.07,1.83,4.09,4.25,7.73,7.27,10.92,2.12,2.25,4.42,4.05,6.88,5.41,4.38,2.4,9.18,3.64,14.39,3.69.12,0,.22.02.3.05.29.12.25.25-.14.41-2.55,1.03-5.19,1.69-7.92,1.99-2.6.29-5.1.06-7.48-.69-.96-.3-3.19-1.33-6.69-3.1-2.32-1.17-4.63-2.37-6.92-3.59-.74-.4-1.44-.85-2.08-1.37-.94-.75-1.58-1.28-1.93-1.59-5.74-6.72-4.28-12.14-5.58-12.58-1.11-.37-.93-.31-1.44,1.92-1.14,4.97-3.89,9.43-7.77,12.74-.29.24-.58.5-.88.76-2.67,2.31-5.6,4.22-8.8,5.72-2.87,1.35-6.21,1.93-10.02,1.75-3.16-.14-6.08-.94-8.78-2.39-.31-.17-.27-.28.08-.25,6.58.56,12.34-1.24,17.27-5.38,3.88-3.27,7.08-7.1,9.6-11.51,2.98-5.21,4.66-10.57,5.06-16.06.17-2.39,0-4.59-.5-6.59-.53-2.09-1.35-4.16-2.47-6.21-.29-.54-1.07-2.11-2.34-4.71-1.65-3.41-2.75-7.26-3.29-11.57" style="fill:#00c944"/></svg>