<svg xmlns="http://www.w3.org/2000/svg" width="570" height="655" version="1"><g fill="none"><path fill="#CC0304" d="M556 390l7-20-9-18-2-23-10-15v-21l-13-13-6-20-13-10-7-21-21-10-11-18-20-6-17-18h-23l-18-9-21 3-17-3-18 5-21-3-19 12-22-1-14 15-19 1-16 19-19 11-6 20-16 15-3 13-15 13-6 22-10 22 3 16-6 21 8 18s0 47 52 74c31 16 67 9 67 9l8 4s11-11 30-8l3-9 16-4 20 2s22-1 17-36c0 0 48-32 62-81 13-50-35-63-51-61-17 2-41 5-46 39l-1 3 29-4c4-4 11-11 22-9 16 3 24 21 16 38-7 16-45 54-45 54l-10-5 1-4c-8-6-14-14-23-17l-5 2-3 28-9 25-8-3-16 6h-13l-2 6-19-9-13 17s-39-10-46-41c0 0 25-12 25-27l-1-15s10-10 4-21c0 0 11-15 8-26l11-12 2-16 15-6 4-11 13-5 10-13 11-1 11-9h13l15-9 12 2 14-5 12 7 17 1 12 6 13 1 8 14 17 3 6 15 11 6 1 16 16 13 3 11 13 40-2 49-15 53-33 44-14 7-5 13-19 1-12 14-18-1-10 11-20-3-13 11-17-5-17 8-16-11-18 5-13-12-18 4-11-10-15-1-12-15-16-5-6-13-15-7-11-19s-23-12-58 22c0 0-38-43-42-127-5-84 28-116 28-116l24-2-2-14h5s2-7 11-14 20-9 20-9l2-7 26-10 12 3 148-70s18-19 15-50l-48-2s-2 17-15 22c-14 4-20-5-20-5l-30 17s-17 1-5-16l25-14s-5-19 7-26 26-1 26-1l25-42s-45-28-75-1L105 124s-12 15-1 42l-5 11h-9s-3 13-14 20c-11 8-18 7-18 7l-1 10S13 261 6 341c-6 80 36 162 48 185 13 22 30 32 30 32s4 10 12 17c9 7 15 9 15 9s6 9 18 15 22 6 22 6 8 12 20 17 20 1 20 1 9 12 20 14c12 3 24 0 24 0s12 11 27 11c15-1 24-8 24-8s9 8 22 5c14-3 23-11 23-11s14 6 24 2c11-5 15-10 15-10l28-4 16-13 23-8 12-13 23-8 8-17 21-14 5-11 14-13 4-19 16-17 4-21 8-16v-23l8-19-4-20z"/><path fill="#FFF" d="M400 382s17-24 21-56c4-33-25-43-25-43s36 5 33 52c-2 27-29 47-29 47"/><path fill="#990202" d="M363 421s0-5-5-12c0 0 38-16 56-42 0 0-3 20-51 54m13-121s-8 1-15 5c-8 5-12-1-6-9 7-7 28-15 41-13 0 0-15-10-34-2-19 9-27 21-29 38l31-4s2-7 12-15m-28 135s9 3 17-11c0 0 6 24-11 27-17 2-18-3-18-3s8-4 12-13m-19-58s-6 15 3 28c0 0-17 8-4 21l2 4-13 9s-10-13-7-25c3-13 7-15 7-15l1-25s8 0 11 3m-62 63l-19-10-9 15s11 6 28 3v-8zm63-10s13-20 18-5c0 0 1-12-13-11s-5 16-5 16"/><path fill="#990202" d="M315 436l-5-9-7 2-4 6 2 11s3 10 16 7 25-8 25-8l6-10s-8 12-24 1c0 0-4 3-9 0m-143-41s9 70 98 64l5 11s-47 11-84-20-33-65-33-65l14 10zm6-63s-7 12 4 16c12 4 19-12 31-3l1-8s-19 9-36-5m32-63s-7 7-3 16c5 8 29 3 26 15l5-14s-17-2-28-17m-18 32s-13 5-3 14 30-6 31 11l4-16s-18 7-32-9"/><path fill="#990202" d="M205 244l-2 1c-13 5-17 16-17 26-26 9-22 38-22 38-22 17-10 42-10 42s-16 21 12 40c27 19 39-2 39-2-16 4-25-6-27-10l-1-1 1 1c1 1 4 3 10 2 10-2 9-12 9-12-37-10-22-39-22-39l11 6c-22-37 5-41 5-41-1-29 15-36 15-36v-11c11-27 22-18 22-18v-12c-20 1-23 17-23 26m308 240s3-24-16-25c-11 3-20 7-24-6l-3 16s29-5 43 15m8-38s-23-12-40-6c0 0-4-6 1-15 0 0 2 6 9 8 7 1 9-10 21-5 13 5 9 18 9 18m8-34s-22-11-43 1l-1-19s4 12 12 10c8-3 19-12 27-5 8 6 5 13 5 13m3-30s-25-9-43 7l-4-27s3 19 13 14c9-5 18-12 28-7 11 4 6 13 6 13"/><path fill="#990202" d="M529 345s-3-15-18-12c-14 3-14 14-21 8s-3-15 3-20l22-10s4-17-13-11c-16 5-6 13-20 9-15-5-2-15-2-15s6-10 21-15c0 0 0-6-10-7-9-1-11 1-15 8-4 8-21 7-17-6s27-19 27-19 2-13-9-13c-12 1-10 3-13 7s-21 11-20-7l11-15s-6-8-14-2c-8 5-18 16-25 0l8-15s-5-6-11-1-18 23-28 2l6-15s-12-2-13 7c-1 8-13 24-23 9l1-15s-12-4-14 6c-2 11-12 19-19 8-6-11-14-12-14-1 1 11-10 25-19 12-9-14-8-17-12-11-5 6-2 7-2 14s-9 20-17 8c-9-13-16-6-13 3 2 9-7 26-15 12l-7-3s-5 14 10 23c14 9 9 15 9 15l13-10 22-16 22-14 32-10 26-3 24 8 26 7 10 13 17 3 6 15 11 6 1 16 16 10 3 14 6 14 7 21 4 1s14-14 40-13M12 332s16 177 76 206c19 7 29 5 36 2 6-3 14-14 14-14s9 4-4 18c-14 14-17 13-14 20s24 6 32-4 17-16 13-1c-3 14-14 11-13 22s20 16 27 6 17-31 15-12c-1 19-12 21 1 28 12 6 20-4 22-9s12-25 14-4c0 11-6 23 4 26 9 4 16-3 18-10 2-8 8-34 16-19 3 11 1 27 12 31s15-2 16-9 9-29 13-10c1 7 11 25 24 10l1-12s0-30 12-13c0 0 4 3 2 13s15 19 24 3l-2-17s-3-25 8-15c10 10 6 21 6 21s16 16 26-6l-4-15s-5-18 6-12c11 5 9 21 9 21s21 8 24-11l-7-16s-8-18 4-13l8 14s20 29 25 4l-5-16-7-11s-10-17 3-12c14 5 9 21 9 21s14 18 23 6l-2-27-11-14s-11-15 0-10c10 5 15 21 15 21s7 21 16 9l-9 16s-3 15-24 24c0 0-6 26-37 27 0 0-1 22-33 20 0 0-11 20-39 14 0 0-21 28-44 14 0 0-19 17-45 3 0 0-17 18-48-2 0 0-25 7-47-13 0 0-29-2-40-20 0 0-28 1-40-24 0 0-19 0-27-25 0 0-22-5-45-60S6 355 12 332"/><path fill="#990202" d="M95 520s23-26 28-20c5 7-24 33-28 20m26-329s-3 8 6 11c8 3 16-2 16-2l-21 11s-12 2-18-3c-5-5-5-10-5-10l22-7z"/><path fill="#FFF" d="M359 319l3-4-29 4-9 52-1 1c9 3 15 11 23 17l13-70z"/><path fill="#990202" d="M116 194l-19 5-1-5 8-23 13 13zm24-38s0-7 6-9c6-1 11 1 16 5 0 0-7-21-22-12-11 6 0 16 0 16"/><path fill="#FFF" d="M267 433s-1 15 3 26 15 15 15 15 2-6 11-7c10-2 18-1 18-1l-1-12s-9 1-13-10c-5-10 3-15 3-15l-5-5s-14 10-31 9M101 177l-4 19 7 12 20 4 1 8s-26 2-31 23c0 0-16-3-26-12s-10-27-10-27 31-8 32-27h11z"/><path fill="#CC0304" d="M268 61l25-42s-10-6-23-10l-25 51c11-4 23 1 23 1m5 403s8-15 32-12l12 1-3 16h-17l-11 8-13-13z"/><path fill="#990202" d="M151 204l2-1 12 3 148-70s9-9 13-25l-54-10-7 5c-14 4-20-5-20-5l-30 17s-17 1-5-16l25-14s-5-19 7-26l3-2 25-51c-15-4-36-6-52 9L105 124s-12 15-1 42l17 23s8 2 19-11c0 0 6-11-3-21 0 0-6-13 5-17 10-5 30 5 23 29-8 24-21 34-21 34l7 1z"/><path fill="#CC0304" d="M347 378l-10-18 8-40-8 2-11 50s13 8 16 17l5-11zM328 86l-48-2s-1 11-8 17l54 10c2-7 3-16 2-25"/><path fill="#CC0304" d="M201 107s-10 9-2 19c8 11 42-5 47-10s18 12 35-11l-6-4s-18 12-30 0l-30 17s-12 3-14-11M63 209s2 15 14 17c0 0 4-14 25-18h4s10 4 16 3l2 9-31 22-23-6-9-17 2-10zM238 22c-36 24-107 95-107 95v6c102-81 112-86 127-89l8-16c-8-2-19-1-28 4"/><path fill="#FFF" d="M266 18l-8 16 1-1c16-3 22 7 22 7l5-15s-9-5-20-7"/><path fill="#000" d="M331 591c-1-10-6-22-12-26-9-7-23-3-24 9 5 7 5 22 5 33 1 2 1 2 3 2 4-3 5-8 5-14 9 7 2 29-12 23l-8 15c28 20 48-11 43-42m-54 46c8-5 18-24 18-37 1-25-14-48-39-36 5 13 2 32-1 43 14 7 15-12 14-20 12 13-2 43-18 29-3 6-8 9-11 15 10 12 27 13 37 6m65-4c44 6 32-71 6-77-7-2-18 2-20 13 6 8 7 19 10 31 11 2 10-13 7-19 13 7 10 42-9 32l-3 13c2 3 5 5 9 7m-108-4c18-14 30-61 8-75-7 0-12-1-17 3 3 17-3 31-9 44 10 2 12-8 14-15 6 13-8 31-22 23-2 5-8 6-10 10 4 11 25 18 36 10m172-23c11-21-6-56-23-61-13-1-19 5-22 14 8 7 11 19 14 31 13-3 3-17 3-24 12 4 20 37-2 35l-1 13c13 7 26 1 31-8m-185-41c0-14-12-24-24-20 0 17-7 27-12 39 7-1 6-10 11-13 0 13-8 28-23 24-4 4-12 4-16 8 25 35 65-3 64-38m207-26c-11-10-33-10-37 6 11 5 18 17 21 31 13-2 2-16 1-20 14 0 21 34 1 31l-1 14c40 4 35-44 15-62m-269 58c18-5 33-30 33-50 0-14-10-24-24-22-1 20-11 31-20 43 12 3 13-9 19-14 1 15-17 30-31 21-4 4-14 4-18 6 5 14 26 19 41 16m266-79c-3 2-4 7-4 12 11 5 19 14 23 26 9-4-2-14-1-19 11 2 22 29 5 34 1 3 0 8 2 10 48 1 13-83-25-63m-302 27c11 2 12-10 19-14 1 12-24 32-33 20-6 3-12 4-18 5 11 32 49 18 63-3 9-14 19-46-4-49-4 19-16 29-27 41m371 3c11-29-12-58-41-56-7 3-9 10-11 18 13 4 21 12 29 21 6-6-6-11-4-18 11 3 25 25 9 31 0 5 3 7 2 12 6-3 12-4 16-8m2-75c-14-6-40-4-35 13 15 4 24 12 33 21 2-9-9-12-11-18 11 5 21 10 23 25l-6 5c0 5 3 7 3 12 24-11 12-49-7-58m26-23c-11-8-29-13-44-6-3 5-5 12-4 21 13-1 26 6 35 10 1-8-8-11-12-16 15-4 33 18 19 29l5 11c24-8 16-38 1-49m-272-17c-5 2-6 6-6 12 6 3 14 3 21 2v-5c-6-2-11-5-15-9m50 4h12c-1-10-10-7-12 0m-30-2c-2 16 3 28 13 33 6-6 16-8 26-7l1-5c-10 0-13-11-13-22 1-2 4-2 3-6-8 4-19 11-30 7m70 9c6-7 11-23 1-28-9-2-13 3-11 10 1-2 1-5 4-5 1 15-17 24-33 19 2 21 27 6 39 4m198 16c8 1 11-13 10-21-3-23-37-38-60-24-4 5-6 16-2 21 10-2 21 3 30 5 9-8-7-13-13-14 14-4 36 9 25 22 5 2 5 11 10 11m-365-38c18 28 60 51 98 43-2-5-5-9-6-15-44 5-73-18-86-50l-16-8c-1 9 5 21 10 30m381-16c-1-31-78-34-65 3 12-5 23-5 35-3-1-10-13-6-19-6 10-11 39-3 32 14l10 11c4-6 7-12 7-19m-360-12c9-3 19-15 13-29-8 6-14 10-28 7 0 6 7 8 12 8-10 6-24-2-25-14-3-4-7-6-10-11-9 23 17 47 38 39m362-13c6-15-9-30-20-33-22-4-60 8-44 35 8-5 23-7 34-6l-1-5c-4-4-14-2-19-1 6-11 41-7 31 9 9 4 14 11 19 1m-216-59l-10 50c5 3 9 6 12 11 1-24 10-43 11-64l-13 3m188-8c-25-4-56 16-40 40 9-5 21-11 33-10l2-6-7-5c-6 0-9 5-13 5 4-16 36-12 34 7 4 0 7 3 10 4 7-17-5-33-19-35m-367 5c-8 13-2 36 8 44 17 12 46 2 42-24-10 4-22 2-29-3-4 9 4 11 9 14-15 4-26-11-18-23l-7-14-5 6m208 60c16-17 44-49 17-69-15-3-14 9-23 12-4 23-10 44-13 69 6 2 14-6 19-12m33 3c9-12 23-32 25-49 2-20-10-39-21-45-26-14-66-3-67 28l21-5c4-7 10-12 20-12 20 0 31 15 29 35-3 20-24 44-38 56-5 4-15 13-18 13-4 0-9-4-13-4-1-12-4-22-16-23-2 7-5 17-2 25-9 7-12 26-3 34l8-5c-9-17 14-25 22-13 8 11-2 25-9 31 20 2 26-15 22-33 15-7 29-19 40-33m102-102c-18 5-42 31-23 47 7-9 17-13 29-16l2-8c-8-7-14 3-20 5 3-15 36-22 35 1 4 1 6 3 10 3 5-25-14-38-33-32m-326 0c-9 5-8 19-7 27 1 13 11 26 21 29 15 4 30-5 27-23-11 3-20-2-26-8-6 6 0 13 5 14-14 4-26-19-12-25-1-5 0-12-3-15 0 0-4-1-5 1m280-1c-3 13 4 21 13 24 3-12 13-18 23-24-7-9-16 3-20 4 1-15 28-22 36-9 6 0 10 1 14 3-4-37-59-20-66 2m-241 30c10-1 16-11 15-22-9-2-15-6-20-12l-2 9c2 3 6 4 7 8-14 0-23-19-12-30-2-3-1-8-3-11-24 11-12 63 15 58M68 253c5 2 14 3 19 1-2-3-2-8-2-12-6 0-10-2-15-4l-2 15m372 6c0 10 7 15 14 16 6-11 15-17 27-21l-1-6c-8-4-15 4-19 5 2-13 30-21 33-3h11c-4-46-64-25-65 9M44 244c-4 7-9 14-12 22-11 22-21 61-19 94 3 62 17 111 43 154 7 12 15 28 24 34l8 3c18 2 41-16 50-29 5-9 5-24 1-34 0-3-3-5-6-5-23 0-33 12-44 23 4 16 32 14 32-4-2-2-6 2-6-1s5-4 9-3c6 14-16 31-29 29-3 0-8-4-10-6l-6-9c-24-32-40-74-45-124-4-44 5-96 19-125 3-6 8-10 10-15 4-11 1-19-3-26l-16 22m170 25c9 11 32 21 37 0-11-2-17-9-22-17-6 5 0 11 3 13-11 4-21-23-7-27 0-6 0-12 2-17-21 3-24 32-13 48m201-32c-2 14 8 18 20 18 1-11 7-17 12-25-8-6-13 5-16 11-4-15 17-28 29-18l15-5c-10-36-57-8-60 19m-157 27c7-1 12-7 14-14-8-4-15-9-16-20-9 3-4 16 0 18-15 1-17-29-1-32l4-17c-37-5-37 70-1 65m6-27c5 10 25 14 32 2-7-4-9-13-10-23l-6-1c-5 3-1 10-1 14-12-5-8-30 9-28 0-7 4-10 6-15-27-8-41 30-30 51M64 210c-1 19 10 28 27 27 2-8 9-12 15-16 5-3 12-3 14-8-19 1-27-11-26-27 2-1 5-4 3-6h-3c-4 16-15 25-30 30m324 20c3 7 14 11 21 9 1-10 5-18 10-26-8-5-12 5-13 12-5-16 12-32 25-21 3-4 10-5 14-7-15-40-68-1-57 33M99 197l14-5 1-7-9-10c-2 7-5 13-6 22m201 38c8 7 21 1 27-5-5-6-7-14-9-23-11-1-3 11-4 16-13-8-5-33 10-33 3-5 7-8 9-13-30-14-55 38-33 58m66-50l-7 13c-6 18 3 41 24 33-2-11-1-21 3-30-8 1-8 9-9 16-9-11 1-32 17-27 3-5 8-6 11-11-13-13-30-6-39 6m-36 41c8 3 17 1 24-2-1-7-3-16-1-22-4-4-9 0-9 5-1 4 3 6 2 9-13-7-3-33 13-27 1-7 7-8 9-14-28-12-55 27-38 51m-212-16c25-6 53-29 41-60-5-10-27-12-20 4 0-4 3-8 7-7-8 8 0 18-1 26-4 18-22 21-42 27 2 6 8 8 15 10M285 88l-7 13 42 8c2-6 2-12 2-20l-37-1m-15-74l-18 37c6 0 10 2 14 3 8-11 14-22 20-34-5-2-10-5-16-6m-59 17c-14 14-28 30-43 42-2 12-1 27-5 37V79c-7 5-2 24-9 32l2-25-46 40c-7 24 4 49 19 60 6-6 12-10 10-21-1-4-6-6-6-11-4-29 42-29 38 2 0 3-2 5-3 8-3 12-6 25-15 33 6 1 11 2 18 0l31-16 65-29c22-10 46-18 51-41-16-1-29-6-44-7-5 4-10 7-18 7-5-1-8-4-11-4-4 0-12 7-16 10-9 4-27 12-29-1-4-18 21-23 30-31-2-16 5-29 18-32 7-13 13-25 18-39-25-5-43 6-55 17m90-16c-4 14-13 24-20 35-3 6-8 11-12 17l-10-3c-15-3-24 8-19 24-9 8-31 10-29 26 14-4 23-11 34-18 3 3 6 5 10 6 17 3 19-11 19-24 19-3 39-2 61 0 5 24-8 48-20 62-39 23-84 39-127 59-9 4-18 10-26 11-4 1-8-1-11-1-7 1-13 7-19 8v7c-13 5-29 8-34 23h-4l1 12c-4 2-4 5-7 6-6 2-13-1-18 0-5 2-10 15-12 21-4 9-5 16-7 24-3 10-5 24-6 35-5 52 11 98 26 132l11 17c13-12 43-32 62-17 5 5 6 12 11 18 11-2 19 7 21 18 12 2 20 8 24 19 15-2 21 5 27 12 10-6 24 0 30 6 12-5 27-2 35 6 7-5 21-7 30-2 7-6 18-11 29-7 7-7 15-15 30-12 9-7 16-16 31-14 2-11 11-15 21-18 2-10 6-18 15-21 2-9 4-13 9-18 3-2 5-2 7-2-2-12 2-22 8-27 0-11 1-19 5-25-3-7 0-18 3-25-2-7-3-16 0-23-4-7-8-11-9-20v-7c-1-7-12-13-9-23-10-6-19-11-17-28-7-5-14-9-15-19-12 1-23-5-26-16-9 1-17-2-22-7-9 3-22-1-28-6-7 3-15 4-23 3-5 8-19 13-28 9-5 6-12 9-20 11-5 6-11 12-21 14-2 10-9 15-18 18-2 10-7 16-12 22 1 10-3 22-10 28 2 8 0 16-4 21 7 22-7 38-24 42 6 19 21 27 38 35 4-9 7-17 19-18l11 9c5-6 18-2 26-6 5-3 9-8 15-2-2-9 3-18 8-23-1-9-1-22 2-31 2-1 5 0 7-2l10-42c0-4-4-3-5-6 5-14 8-26 19-34 32-26 92-10 93 36 1 24-8 39-18 54-11 19-27 36-44 46 5 23-8 43-33 40-6-1-13-4-20 0-2 2-1 8-3 11-4 4-13 0-19 1-8 2-12 9-16 9-5 0-7-6-10-7-27 6-55 0-76-13-19-13-38-33-45-54-2-6 0-12-2-19-2-8-9-10-9-21 0-7 4-12 4-17l-2-9c-2-15 5-26 14-34 1-17 7-29 18-36 2-13 9-24 20-29 4-16 10-29 28-32 6-9 12-21 26-22 2-1 5 1 8 1 3-4 6-9 10-11 8-4 20-5 29-3 9-8 27-15 42-8 10-6 25-9 35-2 13-7 32 0 39 7 20-4 36 3 42 18 16 1 26 10 30 23 16 5 27 15 29 34 8 5 19 10 21 22v6c1 3 5 5 7 7 6 7 10 21 6 30 6 7 13 13 14 25v11c0 3 3 5 4 7 6 10 4 28-3 36 7 12 3 30-4 39 5 15-1 32-10 38 2 20-8 32-19 41 0 17-7 28-19 33-3 13-11 19-22 23-5 17-14 30-35 30-7 11-18 22-36 18-7 13-25 23-42 17-8 13-28 22-46 15-9 8-34 12-44 3-13 11-41 7-51-4-22 5-38-4-49-14-18 3-31-10-41-20-18-1-28-11-36-22-16-3-24-13-30-26-17-7-28-28-37-44A345 345 0 0 1 0 343c3-54 20-97 46-126 3 0 3-3 5-4v-15c17-3 32-8 33-26 2-1 7 0 10 1l4-8-4-9c-4-17 2-35 11-45l80-72 25-25c20-18 69-17 91 1"/><path fill="#000" d="M174 76h2c1 10-1 19-2 28-2-9-2-22 0-28m9 7l2 1-1 6c-4 0-2-4-1-7"/><path fill="#FFF" d="M152 181s12-24 1-28c-10-3 3 10-1 28M29 388s-13-37 1-91c8-31 24-53 26-51s-15 27-22 51c-15 52-4 73-5 91m101 133s6-17 0-25c-5-7 18-5 0 25m24 21s10-17 4-26c-7-8-1 6-4 26m26 25s13-24 2-34 1 8-2 34m32 17s9-22-2-31c-12-10 4 9 2 31m36 9s4-25-10-34c-14-8 8 18 10 34m40 5s3-20-12-30c-14-10 11 19 12 30m37-4s-2-29-16-27 8 4 16 27m39-9s-3-18-15-22c-12-5 8 11 15 22m37-9s-6-25-20-24c-14 0 11 8 20 24m34-17s-6-19-21-21c-14-1 12 12 21 21m27-20s-7-14-21-19c-14-4 6 9 21 19m26-20s-2-12-18-19c-7-4-11-1-6 3 5 5 15 7 24 16m20-22s-2-11-12-17c-10-7-20-5-15 1 4 5 14 3 27 16m21-26s-3-17-21-21c-9-2-8 2 2 6 9 5 11 4 19 15m14-26s0-13-9-20-14-6-10-1c3 4 14 9 19 21m6-32s4-9-3-16c-7-8-24-11-17-5 8 7 17 7 20 21m4-36s0-19-18-24c-17-6-1 6 3 9s10 5 15 15m-8-36s3-10-10-21c-13-10-13 1-6 4 8 2 11 9 16 17m-12-43s-3-13-17-15c-13-2-9 5-2 5s19 10 19 10M396 180s-8-6-15 0c-6 5 15 0 15 0m43 13s-9-10-22-5c-12 5 15 1 22 5m28 23s-4-10-16-7c-13 3-2 3 5 4l11 3m31 24s-2-9-14-10c-11-2-10 0 0 4l14 6m20 31s-4-9-15-11c-11-1 7 6 15 11"/></g></svg>