<svg id="Layer_1" data-name="Layer 1" xmlns="http://www.w3.org/2000/svg" viewBox="0 0 600 600"><defs><style>.cls-1{fill:#00261b;}.cls-2{fill:#008c62;}.cls-3{fill:#00e6a0;}.cls-4{fill:#fff;}</style></defs><title>Artboard 1</title><rect class="cls-1" width="600" height="600"/><g id="Request_Green_Logo_for_Background" data-name="Request Green Logo for Background"><path class="cls-2" d="M360.36,265.6l93.88-93.53a37.26,37.26,0,0,0,11-26.41L465.39,70a15.18,15.18,0,0,0-4.21-10.43L281.06,239.13A37.38,37.38,0,0,0,281,292l.08.07,127,126.59a37.36,37.36,0,1,0,52.75-52.93Z"/><path class="cls-3" d="M450.69,55.35H167.87c-23,0-39.87,17.28-39.87,40.89V391.4a37.58,37.58,0,0,0,38.06,38.06h0c21,0,38.06-16,38.06-38.06V128.18H392.35l68.83-68.6A14.53,14.53,0,0,0,450.69,55.35Z"/><path class="cls-4" d="M138.57,503.45v22.8H128V465.5h27.54c14.4,0,21.72,6.83,21.72,17.39,0,8.76-6.32,15.15-15.81,16.9a16.09,16.09,0,0,1,6.66,2.24c3.5,2.25,5.33,6.33,7.32,13.32l3.16,10.9H167.36l-2.82-10.74c-2.58-9.89-5-12.06-15.57-12.06Zm0-28.8v21.14h14c9.15,0,14.23-4.16,14.23-10.9,0-6.49-4.08-10.24-13.81-10.24Z"/><path class="cls-4" d="M206.05,527.08c-16.06,0-24.29-10.23-24.29-23.88,0-13.23,9.07-24.47,24-24.47,15.23,0,22.39,10.9,22.39,23.39v3.66H191.91c.83,7.9,5.57,12.65,14,12.65,6.09,0,9.57-2.5,12.31-7.33l8.75,4.75C223,522.42,216.46,527.08,206.05,527.08Zm-14-27.78h25.8c-.42-6.92-4.08-12-12.23-12-7.74,0-12.4,4.49-13.57,12Z"/><path class="cls-4" d="M255.23,479.07c7.57,0,12.65,3.33,15.56,10v-9.4h10.32v64.57H270.63V516.61c-3.08,6.58-8.74,10.24-16.23,10.24-11.07,0-20.06-7.91-20.06-23.64C234.34,487.14,244.58,479.07,255.23,479.07Zm16.31,23.8c0-8.91-4.07-15.4-13.32-15.4-8.65,0-13.23,6.24-13.23,15.56s4.33,15.22,13.23,15.22c9.25,0,13.32-6.48,13.32-15.38Z"/><path class="cls-4" d="M334.2,526.25H323.8v-11c-3.16,7.9-8.91,11.89-16,11.89-11.24,0-16.65-7.49-16.65-18.88V479.65h10.41v25.8c0,7.9,2.75,13,10.57,13,7.15,0,11.57-6.16,11.57-15.9V479.65H334.2Z"/><path class="cls-4" d="M366.65,527.08c-16.06,0-24.3-10.23-24.3-23.88,0-13.23,9.08-24.47,24-24.47,15.22,0,22.38,10.9,22.38,23.39v3.66h-36.2c.83,7.9,5.57,12.65,14,12.65,6.09,0,9.58-2.5,12.32-7.33l8.75,4.75C383.55,522.42,377.05,527.08,366.65,527.08Zm-14-27.78h25.8c-.43-6.92-4.08-12-12.23-12-7.74,0-12.4,4.49-13.57,12Z"/><path class="cls-4" d="M400.85,510.86c3.83,5,8.49,7.66,15.31,7.66,6.41,0,9.07-3.08,9.07-6.32,0-4.75-7.32-5.08-15.64-6.5-8.24-1.25-14.57-4.07-14.57-12.48,0-8.16,6.83-14.65,18.56-14.65,9.49,0,16.15,2.83,21.8,9.49l-8,6.83c-3.57-5.08-8-7.58-14.39-7.58s-8.82,2.91-8.82,6c0,4.16,5.49,4.91,13.23,6.09,8.82,1.33,17.06,3.43,17.06,12.82,0,8.75-7,15.06-18.56,15.06-10.57,0-18.06-3.49-22.64-9.24Z"/><path class="cls-4" d="M472,525.17a18.22,18.22,0,0,1-8.65,1.9c-10.16,0-14.32-5.41-14.32-15.73v-23H438.38v-8.65h10.73v-11.8l9.74-5.82v17.64H472v8.65H458.85v21.8c0,5.83,2.41,8,7,8a14.34,14.34,0,0,0,6.16-1.34Z"/></g></svg>