<svg xmlns="http://www.w3.org/2000/svg" viewBox="0 0 270.02 50.95"><defs><style>.cls-1{fill:#008c62;}.cls-2{fill:#00e6a0;}.cls-3{fill:#00261b;}</style></defs><title>Asset 1</title><g id="Layer_2" data-name="Layer 2"><g id="Artwork"><path class="cls-1" d="M25.82,23.36,36.25,13A4.14,4.14,0,0,0,37.47,10l0-8.4A1.7,1.7,0,0,0,37,.47l-20,20a4.15,4.15,0,0,0,0,5.88L31.12,40.37A4.15,4.15,0,1,0,37,34.49Z"/><path class="cls-2" d="M35.85,0H4.43A4.35,4.35,0,0,0,0,4.54v32.8a4.18,4.18,0,0,0,4.23,4.23h0a4.17,4.17,0,0,0,4.23-4.23V8.09H29.37L37,.47A1.64,1.64,0,0,0,35.85,0Z"/><path class="cls-3" d="M65.22,25.91v14H58.73V2.6H75.65C84.49,2.6,89,6.79,89,13.29c0,5.36-3.88,9.3-9.71,10.37A10,10,0,0,1,83.37,25c2.15,1.38,3.27,3.89,4.5,8.18l1.94,6.69h-6.9l-1.74-6.59c-1.58-6.08-3.07-7.41-9.56-7.41Zm0-17.68v13h8.59c5.62,0,8.74-2.56,8.74-6.7,0-4-2.5-6.28-8.48-6.28Z"/><path class="cls-3" d="M106.68,40.43c-9.87,0-14.93-6.29-14.93-14.67,0-8.13,5.57-15,14.72-15,9.35,0,13.75,6.7,13.75,14.36v2.25H98c.51,4.86,3.42,7.77,8.58,7.77,3.73,0,5.88-1.53,7.57-4.5l5.36,2.92C117.05,37.56,113.06,40.43,106.68,40.43ZM98.09,23.35h15.84c-.25-4.24-2.5-7.36-7.51-7.36C101.67,16,98.8,18.75,98.09,23.35Z"/><path class="cls-3" d="M136.88,10.93c4.65,0,7.77,2.05,9.56,6.14V11.29h6.34V51h-6.44V34a10.44,10.44,0,0,1-10,6.28c-6.8,0-12.32-4.85-12.32-14.51C124.05,15.89,130.34,10.93,136.88,10.93Zm10,14.62c0-5.47-2.51-9.45-8.18-9.45-5.31,0-8.13,3.83-8.13,9.55S133.25,35,138.72,35C144.39,35,146.9,31,146.9,25.55Z"/><path class="cls-3" d="M185.39,39.91H179V33.17c-1.95,4.85-5.47,7.31-9.82,7.31-6.9,0-10.22-4.6-10.22-11.61V11.29h6.39V27.14c0,4.85,1.69,8,6.49,8,4.4,0,7.11-3.78,7.11-9.76V11.29h6.44Z"/><path class="cls-3" d="M205.32,40.43c-9.87,0-14.93-6.29-14.93-14.67,0-8.13,5.57-15,14.72-15,9.36,0,13.75,6.7,13.75,14.36v2.25H196.63c.51,4.86,3.42,7.77,8.59,7.77,3.73,0,5.87-1.53,7.56-4.5l5.37,2.92C215.69,37.56,211.71,40.43,205.32,40.43Zm-8.59-17.08h15.85c-.26-4.24-2.51-7.36-7.52-7.36C200.31,16,197.45,18.75,196.73,23.35Z"/><path class="cls-3" d="M226.32,30.46a11,11,0,0,0,9.41,4.7c3.93,0,5.57-1.89,5.57-3.88,0-2.92-4.5-3.12-9.61-4s-8.94-2.5-8.94-7.67c0-5,4.19-9,11.39-9,5.83,0,9.92,1.74,13.39,5.82l-4.9,4.2A10,10,0,0,0,233.79,16c-3.94,0-5.42,1.79-5.42,3.68,0,2.56,3.37,3,8.12,3.74,5.42.81,10.48,2.09,10.48,7.87,0,5.36-4.29,9.25-11.4,9.25-6.49,0-11.09-2.15-13.9-5.68Z"/><path class="cls-3" d="M270,39.25a11.12,11.12,0,0,1-5.31,1.18c-6.24,0-8.79-3.33-8.79-9.66V16.61h-6.55V11.29H256V4l6-3.57V11.29H270v5.32H262V30c0,3.58,1.48,4.91,4.29,4.91a8.88,8.88,0,0,0,3.78-.82Z"/></g></g></svg>